<svg width="640" height="641" viewBox="0 0 640 641" fill="none" xmlns="http://www.w3.org/2000/svg">
<path d="M420.585 640.456H416.532C278.088 640.456 211.361 585.889 199.824 463.66C198.577 450.876 207.931 439.339 221.027 438.092C233.5 436.845 245.349 446.511 246.596 459.295C255.638 557.203 301.786 593.685 416.843 593.685H420.897C547.803 593.685 592.704 548.784 592.704 421.878V218.578C592.704 91.6718 547.803 46.7713 420.897 46.7713H416.843C301.162 46.7713 255.015 83.8766 246.596 183.655C245.037 196.44 234.123 206.106 221.027 204.858C207.931 203.923 198.577 192.386 199.513 179.602C210.114 55.502 277.153 0 416.532 0H420.585C573.683 0 639.163 65.4798 639.163 218.578V421.878C639.163 574.976 573.683 640.456 420.585 640.456Z" fill="white"/>
<path d="M413.058 343.614H58.2206C45.4365 343.614 34.835 333.012 34.835 320.228C34.835 307.444 45.4365 296.843 58.2206 296.843H413.058C425.842 296.843 436.443 307.444 436.443 320.228C436.443 333.012 425.842 343.614 413.058 343.614Z" fill="white"/>
<path d="M127.764 448.073C121.839 448.073 115.915 445.89 111.238 441.213L6.78184 336.757C-2.26061 327.715 -2.26061 312.748 6.78184 303.705L111.238 199.249C120.28 190.207 135.247 190.207 144.29 199.249C153.332 208.292 153.332 223.258 144.29 232.301L56.3594 320.231L144.29 408.161C153.332 417.204 153.332 432.171 144.29 441.213C139.924 445.89 133.688 448.073 127.764 448.073Z" fill="white"/>
</svg>
